<svg xmlns="http://www.w3.org/2000/svg" width="524" height="178" viewBox="0 0 524 178"><path d="M202 74V60h-4V46h4V30h-4V16h4V0h122v16h4v14h-4v16h4v14h-4v14zm18-8.5V42h9l4-5V15l-4-5h-19v24h-2v8h2v23.5Zm0-33.5V18h4v14zm36 33.5 4-3.5V10h-8v46h-6V10h-8v52l4 3.5zm32-3.5V41.5l-4-3.5 4-3V14l-4-4h-18v24h-2v8h2v24h18zm-14-20h6v16h-6zm0-24h6v16h-6zm37 48 5-4V34h-12v8h4v14h-6V18h6v10h8V14l-5-4h-12l-5 4v48l5 3.939zM2 141.5H0v-15h2V90h29l7 7v29.5l-7 7.5 7 7.5V171l-7 7H2Zm22 0h-8v23h8zm0-37.5h-8v22.5h8zm32-14h15l13 88H70l-2-22h-8l-2 22H44Zm10 50.5L64 118l-2 22.5ZM92 104H81V90h65v14h-12v74h-14v-74h-14v74H92Zm62-14h14v74h14v14h-28zm36 51.5h-2v-15h2V90h28v14h-14v22.5h14v15h-14V164h14v14h-28zm42 36.5-7-8V97l7-7h23l7 7v21h-14v-14h-8v60h8v-22.5h-4v-15h17V170l-5.802 8zm38-36.5h-2v-15h2V90h28l7 8v28.5l-7 7.5 7 7.5V178h-13v-36.5h-9V178h-13Zm22-38.5h-9v23.5h9zm28 75-7-8v-28.5h-2v-15h2V98l7-8h22l7 8v28.5h2V142h-2v28l-7 8zm16-75h-10v60.962l10 .038zm28 75-7-8V90h14v74h8V90h14v80l-7 8zm36-88h14l8 36.5V90h14v88h-14l-8-36v36h-14zm44 0h29l7 7v74l-7 7h-29zm22 14h-8v60h8zm22 67v-21h14v14h8v-14l-22-27V97l6.933-7h22.134L524 97v21h-14v-14h-8v14l22 27v26l-7 7-22.5-.137z" style="display:inline;opacity:1;fill:#fff;fill-opacity:1"/></svg>